<?xml version="1.0" encoding="utf-8"?>
<svg id="master-artboard" xmlns="http://www.w3.org/2000/svg" viewBox="0 0 500 500" width="500px" height="500px"><g transform="matrix(1.227135315943922, 0, 0, 1.227135315943922, 0.000003850348548439797, 7.105427357601002e-15)"><g>
	<path style="fill: rgb(250, 255, 251);" d="M255.099,116.515c4.487,0,8.129-3.633,8.129-8.129c0-4.495-3.642-8.129-8.129-8.129H143.486&#10;&#9;&#9;c-4.487,0-8.129,3.633-8.129,8.129c0,4.495,3.642,8.129,8.129,8.129H255.099z"/>
	<path style="fill: rgb(237, 255, 252);" d="M367.062,100.258H311.69c-4.487,0-8.129,3.633-8.129,8.129c0,4.495,3.642,8.129,8.129,8.129h47.243&#10;&#9;&#9;v274.681H48.519V116.515h44.536c4.487,0,8.129-3.633,8.129-8.129c0-4.495-3.642-8.129-8.129-8.129H40.391&#10;&#9;&#9;c-4.487,0-8.129,3.633-8.129,8.129v290.938c0,4.495,3.642,8.129,8.129,8.129h326.671c4.487,0,8.129-3.633,8.129-8.129V108.386&#10;&#9;&#9;C375.191,103.891,371.557,100.258,367.062,100.258z"/>
	<path style="fill: rgb(250, 255, 251);" d="M282.59,134.796c4.487,0,8.129-3.633,8.129-8.129V67.394C290.718,30.238,250.604,0,201.101,0&#10;&#9;&#9;c-49.308,0-89.414,30.238-89.414,67.394v59.274c0,4.495,3.642,8.129,8.129,8.129s8.129-3.633,8.129-8.129V67.394&#10;&#9;&#9;c0-28.198,32.823-51.137,73.36-51.137c40.334,0,73.157,22.939,73.157,51.137v59.274&#10;&#9;&#9;C274.461,131.163,278.095,134.796,282.59,134.796z"/>
	<path style="fill: rgb(255, 255, 250);" d="M98.892,147.566c0,11.526,9.389,20.907,20.923,20.907c11.534,0,20.923-9.38,20.923-20.907&#10;&#9;&#9;c0-4.495-3.642-8.129-8.129-8.129s-8.129,3.633-8.129,8.129c0,2.561-2.089,4.65-4.666,4.65c-2.569,0-4.666-2.089-4.666-4.65&#10;&#9;&#9;c0-4.495-3.642-8.129-8.129-8.129S98.892,143.071,98.892,147.566z"/>
	<path style="fill: rgb(255, 250, 252);" d="M282.59,168.473c11.534,0,20.923-9.38,20.923-20.907c0-4.495-3.642-8.129-8.129-8.129&#10;&#9;&#9;c-4.487,0-8.129,3.633-8.129,8.129c0,2.561-2.089,4.65-4.666,4.65c-2.577,0-4.666-2.089-4.666-4.65&#10;&#9;&#9;c0-4.495-3.642-8.129-8.129-8.129c-4.487,0-8.129,3.633-8.129,8.129C261.667,159.092,271.055,168.473,282.59,168.473z"/>
</g><g>
</g><g>
</g><g>
</g><g>
</g><g>
</g><g>
</g><g>
</g><g>
</g><g>
</g><g>
</g><g>
</g><g>
</g><g>
</g><g>
</g><g>
</g></g></svg>